<svg width="95" height="69" viewBox="0 0 95 69" fill="none" xmlns="http://www.w3.org/2000/svg">
  <g clip-path="url(#clip0_1_2)">
  <rect width="95" height="69" fill="white"/>
  <path d="M57.9007 17.674C56.2463 17.674 55.4191 16.9899 55.4191 15.6218V11.6437C55.4191 10.2756 56.2463 9.59149 57.9007 9.59149H91.9154C93.5699 9.59149 94.3971 10.2756 94.3971 11.6437V15.6218C94.3971 16.9899 93.5699 17.674 91.9154 17.674H79.7389V53.1295C79.7389 54.2872 79.1875 54.866 78.0846 54.866H71.7317C70.6287 54.866 70.0772 54.2872 70.0772 53.1295V17.674H57.9007Z" fill="#8D33AC"/>
  <path d="M2.6103 55.8763C1.06619 55.8763 0.294128 55.087 0.294128 53.5083V12.9697C0.294128 11.3911 1.06619 10.6018 2.6103 10.6018H7.50736C9.40443 10.6018 10.8382 11.3385 11.8088 12.8118L28.6838 38.6695H28.9154C28.8052 37.4066 28.75 36.1437 28.75 34.8808V12.9697C28.75 11.3911 29.5221 10.6018 31.0662 10.6018H36.0956C37.6397 10.6018 38.4118 11.3911 38.4118 12.9697V53.5083C38.4118 55.087 37.6397 55.8763 36.0956 55.8763H31.5294C29.6323 55.8763 28.1986 55.1395 27.228 53.6662L10.0221 27.335H9.79045C9.90075 28.5979 9.95589 29.8608 9.95589 31.1237V53.5083C9.95589 55.087 9.18383 55.8763 7.63972 55.8763H2.6103Z" fill="#8D33AC"/>
  <path d="M42.9449 68.221C40.6287 68.221 39.4706 67.037 39.4706 64.6692V3.86114C39.4706 1.49322 40.6287 0.309265 42.9449 0.309265H50.9853C52.9706 0.309265 53.9633 1.49322 53.9633 3.86114V56.4761H82.8989C85.3806 56.4761 86.6213 57.5022 86.6213 59.5545V65.1427C86.6213 67.1949 85.3806 68.221 82.8989 68.221H42.9449Z" fill="#611590"/>
  </g>
  <defs>
  <clipPath id="clip0_1_2">
  <rect width="95" height="69" fill="white"/>
  </clipPath>
  </defs>
</svg>
